{"title":"Hairspray.2007.BluRay.1080p.AC3-Lorinsion","uid":6100414,"size":3919787340,"categoryP":"video","categoryS":"hd___movies","magnet":"?xt=urn:btih:04220ca64d44d1ba74bc4ee220107c72605fd052&amp;dn=Hairspray.2007.BluRay.1080p.AC3-Lorinsion&amp;tr=udp%3A%2F%2Ftracker.openbittorrent.com%3A80&amp;tr=udp%3A%2F%2Fopen.demonii.com%3A1337&amp;tr=udp%3A%2F%2Ftracker.coppersurfer.tk%3A6969&amp;tr=udp%3A%2F%2Fexodus.desync.com%3A6969","seeders":1,"leechers":1,"uploader":"Lorinsion","files":8,"time":1294943534,"description":"General\nComplete name                    : C:\\UPs\\Hairspray.2007.BluRay.1080p-Lorinsion\\Hairspray.mkv\nFormat                           : Matroska\nFile size                        : 3.56 GiB\nDuration                         : 1h 56mn\nOverall bit rate                 : 4 392 Kbps\nMovie name                       : Hairspray\nEncoded date                     : UTC 2010-12-10 01:21:32\nWriting application              : mkvmerge v4.3.0 ('Escape from the Island') built on Sep  5 2010 10:30:51\nWriting library                  : libebml v1.0.0 + libmatroska v1.0.0\n\nVideo\nID                               : 1\nFormat                           : AVC\nFormat/Info                      : Advanced Video Codec\nFormat profile                   : &lt;a class=&quot;__cf_email__&quot; href=&quot;/cdn-cgi/l/email-protection&quot; data-cfemail=&quot;0840616f6048443c2638&quot;&gt;[email&amp;#160;protected]&lt;/a&gt;&lt;script cf-hash='f9e31' type=&quot;text/javascript&quot;&gt;\n/* &lt;![CDATA[ */!function(){try{var t=&quot;currentScript&quot;in document?document.currentScript:function(){for(var t=document.getElementsByTagName(&quot;script&quot;),e=t.length;e--;)if(t[e].getAttribute(&quot;cf-hash&quot;))return t[e]}();if(t&amp;&amp;t.previousSibling){var e,r,n,i,c=t.previousSibling,a=c.getAttribute(&quot;data-cfemail&quot;);if(a){for(e=&quot;&quot;,r=parseInt(a.substr(0,2),16),n=2;a.length-n;n+=2)i=parseInt(a.substr(n,2),16)^r,e+=String.fromCharCode(i);e=document.createTextNode(e),c.parentNode.replaceChild(e,c)}}}catch(u){}}();/* ]]&gt; */&lt;/script&gt;\nFormat settings, CABAC           : Yes\nFormat settings, ReFrames        : 3 frames\nCodec ID                         : V_MPEG4/ISO/AVC\nDuration                         : 1h 56mn\nBit rate mode                    : Variable\nBit rate                         : 3 665 Kbps\nMaximum bit rate                 : 25.0 Mbps\nWidth                            : 1 920 pixels\nHeight                           : 816 pixels\nDisplay aspect ratio             : 2.35:1\nFrame rate                       : 23.976 fps\nColor space                      : YUV\nChroma subsampling               : 4:2:0\nBit depth                        : 8 bits\nScan type                        : Progressive\nBits/(Pixel*Frame)               : 0.098\nStream size                      : 2.97 GiB (83%)\nWriting library                  : x264 core 105 r1732 2b04482\n\nAudio\nID                               : 2\nFormat                           : AC-3\nFormat/Info                      : Audio Coding 3\nMode extension                   : CM (complete main)\nCodec ID                         : A_AC3\nDuration                         : 1h 56mn\nBit rate mode                    : Constant\nBit rate                         : 640 Kbps\nChannel(s)                       : 6 channels\nChannel positions                : Front: L C R, Side: L R, LFE\nSampling rate                    : 48.0 KHz\nBit depth                        : 16 bits\nCompression mode                 : Lossy\nStream size                      : 532 MiB (15%)\nLanguage                         : English\n\n\nScreens:\n &lt;a href=&quot;\nhttp://img217.imageshack.us/i/vlcsnap2011011318h20m40.png/&quot; rel=&quot;nofollow&quot; target=&quot;_NEW&quot;&gt;\nhttp://img217.imageshack.us/i/vlcsnap2011011318h20m40.png/&lt;/a&gt;\n &lt;a href=&quot;\nhttp://img33.imageshack.us/i/vlcsnap2011011318h16m42.png/&quot; rel=&quot;nofollow&quot; target=&quot;_NEW&quot;&gt;\nhttp://img33.imageshack.us/i/vlcsnap2011011318h16m42.png/&lt;/a&gt;\n &lt;a href=&quot;\nhttp://img714.imageshack.us/i/vlcsnap2011011318h17m57.png/&quot; rel=&quot;nofollow&quot; target=&quot;_NEW&quot;&gt;\nhttp://img714.imageshack.us/i/vlcsnap2011011318h17m57.png/&lt;/a&gt;\n &lt;a href=&quot;\nhttp://img689.imageshack.us/i/vlcsnap2011011318h20m13.png/&quot; rel=&quot;nofollow&quot; target=&quot;_NEW&quot;&gt;\nhttp://img689.imageshack.us/i/vlcsnap2011011318h20m13.png/&lt;/a&gt;\n &lt;a href=&quot;\nhttp://img801.imageshack.us/i/vlcsnap2011011318h20m16.png/&quot; rel=&quot;nofollow&quot; target=&quot;_NEW&quot;&gt;\nhttp://img801.imageshack.us/i/vlcsnap2011011318h20m16.png/&lt;/a&gt;","torrent":{"xt":"urn:btih:04220ca64d44d1ba74bc4ee220107c72605fd052","amp;dn":"Hairspray.2007.BluRay.1080p.AC3-Lorinsion","amp;tr":["udp%3A%2F%2Ftracker.openbittorrent.com%3A80","udp%3A%2F%2Fopen.demonii.com%3A1337","udp%3A%2F%2Ftracker.coppersurfer.tk%3A6969","udp%3A%2F%2Fexodus.desync.com%3A6969"],"infoHash":"04220ca64d44d1ba74bc4ee220107c72605fd052","infoHashBuffer":{"type":"Buffer","data":[4,34,12,166,77,68,209,186,116,188,78,226,32,16,124,114,96,95,208,82]},"announce":[],"urlList":[]}}